<svg width="30" height="30" viewBox="0 0 30 30" fill="none" xmlns="http://www.w3.org/2000/svg">
<rect width="30" height="30" rx="8" fill="#E8E9EA"/>
<path d="M19.3834 13.5389L20.8445 12.0778C21.1842 11.7381 21.3541 11.5683 21.456 11.3916C21.9691 10.503 21.4599 9.77102 20.8445 9.15568C20.2291 8.54024 19.4972 8.03111 18.6085 8.54413C18.4318 8.64615 18.262 8.81599 17.9223 9.15568L16.4612 10.6168C15.7725 11.3055 15.4282 11.6499 15.0002 11.6499C14.5722 11.6499 14.2278 11.3055 13.5391 10.6168L12.078 9.15568C11.7383 8.81599 11.5685 8.64615 11.3918 8.54413C10.5031 8.03108 9.77124 8.54028 9.15584 9.15568C8.54044 9.77109 8.03124 10.503 8.54429 11.3916C8.6463 11.5683 8.81614 11.7381 9.15584 12.0778L10.6169 13.5389C11.3057 14.2277 11.6501 14.572 11.6501 15C11.6501 15.428 11.3057 15.7723 10.6169 16.4611L9.15584 17.9222C8.81614 18.2618 8.6463 18.4317 8.54429 18.6083C8.03126 19.497 8.54039 20.2289 9.15584 20.8443C9.77118 21.4598 10.5032 21.9689 11.3918 21.4558C11.5685 21.3539 11.7383 21.1841 12.078 20.8443L13.5391 19.3833C14.2278 18.6945 14.5722 18.3501 15.0002 18.3501C15.4282 18.3501 15.7725 18.6945 16.4612 19.3833L17.9223 20.8443C18.262 21.1841 18.4318 21.3539 18.6085 21.4558C19.4972 21.9689 20.2292 21.4598 20.8445 20.8443C21.46 20.229 21.9691 19.497 21.456 18.6083C21.3541 18.4317 21.1842 18.2618 20.8445 17.9222C20.1772 17.2548 18.3502 16.0146 18.3502 15C18.3502 14.572 18.6947 14.2277 19.3834 13.5389Z" stroke="#0B0D12" stroke-width="1.5" stroke-linecap="round" stroke-linejoin="round"/>
</svg>
