<svg width="30" height="30" viewBox="0 0 30 30" fill="none" xmlns="http://www.w3.org/2000/svg">
<rect width="30" height="30" rx="8" fill="#E8E9EA"/>
<path d="M7.65 11C7.65 10.2544 8.25442 9.65 9 9.65H22C22.7456 9.65 23.35 10.2544 23.35 11V12C23.35 12.7456 22.7456 13.35 22 13.35H9C8.25442 13.35 7.65 12.7456 7.65 12V11ZM7.65 18C7.65 17.2544 8.25442 16.65 9 16.65H22C22.7456 16.65 23.35 17.2544 23.35 18V19C23.35 19.7456 22.7456 20.35 22 20.35H9C8.25442 20.35 7.65 19.7456 7.65 19V18Z" stroke="#0B0D12" stroke-width="1.3"/>
</svg>
